HIERARCHY
ROOT hip
{
	OFFSET	0.00  0.00  0.00 
	CHANNELS 6 Xposition Yposition Zposition Xrotation Zrotation Yrotation
	JOINT abdomen
	{
		OFFSET	0.000000 0.000000 0.000000
		CHANNELS 3 Xrotation Zrotation Yrotation
		JOINT chest
		{
			OFFSET	0.000000 5.018152 -1.882228
			CHANNELS 3 Xrotation Zrotation Yrotation
			JOINT neckDummy
			{
				OFFSET	0.000000 8.316447 0.784897
				CHANNELS 3 Xrotation Yrotation Zrotation
				JOINT neck
				{
					OFFSET	0.000000 2.280413 -0.392801
					CHANNELS 3 Xrotation Zrotation Yrotation
					JOINT head
					{
						OFFSET	0.000000 3.496879 0.529469
						CHANNELS 3 Xrotation Zrotation Yrotation
						JOINT figureHair
						{
							OFFSET	0.000000 4.699570 0.720622
							CHANNELS 3 Zrotation Yrotation Xrotation
							End Site
							{
								OFFSET 0.000000 -6.419331 0.000000
							}
						}
					}
				}
			}
			JOINT lCollar
			{
				OFFSET	0.599237 8.316447 0.784897
				CHANNELS 3 Yrotation Zrotation Xrotation
				JOINT lShldr
				{
					OFFSET	6.421198 0.010146 -0.332128
					CHANNELS 3 Zrotation Yrotation Xrotation
					JOINT lForeArm
					{
						OFFSET	10.552783 0.025574 0.125508
						CHANNELS 3 Yrotation Zrotation Xrotation
						JOINT lHand
						{
							OFFSET	11.035963 0.319619 0.041520
							CHANNELS 3 Zrotation Yrotation Xrotation
							End Site
							{
								OFFSET 10.353753 0.000000 0.000000
							}
						}
					}
				}
			}
			JOINT rCollar
			{
				OFFSET	-0.599237 8.316447 0.784897
				CHANNELS 3 Yrotation Zrotation Xrotation
				JOINT rShldr
				{
					OFFSET	-6.421198 0.010146 -0.332128
					CHANNELS 3 Zrotation Yrotation Xrotation
					JOINT rForeArm
					{
						OFFSET	-10.552783 0.025574 0.125508
						CHANNELS 3 Yrotation Zrotation Xrotation
						JOINT rHand
						{
							OFFSET	-11.035963 0.319619 0.041520
							CHANNELS 3 Zrotation Yrotation Xrotation
							End Site
							{
								OFFSET -10.353753 0.000000 0.000000
							}
						}
					}
				}
			}
		}
	}
	JOINT lThigh
	{
		OFFSET	4.500466 -6.400484 -1.832696
		CHANNELS 3 Xrotation Zrotation Yrotation
		JOINT lShin
		{
			OFFSET	-1.359117 -18.918689 1.179887
			CHANNELS 3 Xrotation Zrotation Yrotation
			JOINT lFoot
			{
				OFFSET	-0.652380 -17.215186 -0.312137
				CHANNELS 3 Xrotation Yrotation Zrotation
				End Site
				{
					OFFSET 0.000000 0.000000 10.353752
				}
			}
		}
	}
	JOINT rThigh
	{
		OFFSET	-4.500466 -6.400484 -1.832696
		CHANNELS 3 Xrotation Zrotation Yrotation
		JOINT rShin
		{
			OFFSET	1.359117 -18.918689 1.179887
			CHANNELS 3 Xrotation Zrotation Yrotation
			JOINT rFoot
			{
				OFFSET	0.652380 -17.215186 -0.312137
				CHANNELS 3 Xrotation Yrotation Zrotation
				End Site
				{
					OFFSET 0.000000 0.000000 10.353752
				}
			}
		}
	}
}
MOTION
Frames:     17
Frame Time: 0.050000
0.000000 42.014908 0.240040 0.000000 0.000000 0.000000 0.058116 1.040922 0.391053 -0.711915 0.037285 -0.000226 0.000000 0.000000 0.000000 0.000000 0.000000 0.000000 0.025085 0.546299 0.000160 0.000000 0.000000 0.000000 -0.114061 -6.180746 -0.304518 -68.300468 11.300083 16.292261 -23.567358 -10.093507 -0.016380 5.421864 -0.362939 0.168528 -2.817209 6.233119 -0.010399 70.100700 -9.978770 15.991600 22.624067 9.802001 0.132497 -3.695848 0.175994 0.128070 -7.548709 4.016634 0.126881 15.890360 -3.336124 -0.813312 -8.628910 1.044381 -0.888102 -7.530616 -4.334307 0.100752 15.830232 3.319340 0.622262 -8.660608 -1.559428 0.936809 
0.003486 42.014305 0.240136 -0.020215 -0.024771 0.006436 0.058338 1.041016 0.922567 -0.191928 -0.564987 0.491768 0.000000 0.000000 0.000000 3.523651 -1.232196 -0.748738 0.355196 -0.121698 0.116957 0.000000 0.000000 0.000000 -0.310150 -5.763823 -0.303607 -64.453362 11.133381 16.981556 -25.095510 -8.138822 0.638443 5.558814 -0.189349 -0.205833 -2.883255 5.988702 0.005774 65.025421 -9.030327 16.500406 23.175331 8.732965 0.084066 -4.195805 -0.454791 0.150734 -7.547187 4.016582 0.129300 15.899100 -3.351295 -0.812360 -8.630224 1.036090 -0.886998 -7.513049 -4.322458 0.098664 15.813042 3.325037 0.620348 -8.668083 -1.533689 0.937305 
0.012169 42.012806 0.240374 -0.044769 -0.054852 0.023010 0.058846 1.041228 1.518458 0.451502 -1.280037 1.020892 0.000000 0.000000 0.000000 7.878490 -2.932900 -2.142922 0.784462 -0.957245 0.251399 0.000000 0.000000 0.000000 -0.566360 -5.248809 -0.306789 -60.009289 11.059070 17.819210 -27.035055 -5.719595 1.460097 5.717685 0.012027 -0.640115 -2.959925 5.628575 0.028512 58.999599 -7.926318 17.103922 24.041801 7.175690 -0.131265 -4.819502 -1.409127 0.185944 -7.542892 4.016394 0.135260 15.918470 -3.388550 -0.809874 -8.632394 1.015837 -0.884283 -7.469753 -4.293519 0.093546 15.770258 3.339014 0.615605 -8.685927 -1.470440 0.938528 
0.026448 42.010338 0.240765 -0.071491 -0.087582 0.050553 0.059577 1.041534 2.119966 1.152334 -2.035645 1.535930 0.000000 0.000000 0.000000 12.483180 -4.743657 -3.649986 1.268020 -1.874240 0.390079 0.000000 0.000000 0.000000 -0.855867 -4.688527 -0.313569 -55.332035 10.989736 18.703922 -29.185034 -3.084146 2.363809 5.882759 0.221265 -1.091352 -3.039487 5.171188 0.056448 52.641212 -6.762852 17.740709 25.189085 5.213243 -0.528991 -5.518490 -2.662771 0.233033 -7.535665 4.016059 0.144896 15.948674 -3.448725 -0.805782 -8.635350 0.983180 -0.879895 -7.399740 -4.246857 0.085282 15.700860 3.361583 0.607921 -8.714484 -1.368257 0.940508 
0.045358 42.007072 0.241282 -0.100065 -0.122575 0.087172 0.060379 1.041870 2.737844 1.884184 -2.819686 2.060546 0.000000 0.000000 0.000000 16.989124 -6.266843 -4.469026 1.776430 -2.833316 0.533227 0.000000 0.000000 0.000000 -1.160440 -4.103590 -0.321364 -50.320789 10.737670 19.589575 -31.438229 -0.331973 3.309405 6.053780 0.438042 -1.558848 -3.121603 4.637479 0.088480 46.064610 -5.526928 18.400213 26.555986 2.932595 -1.067884 -6.284582 -4.181059 0.290620 -7.526165 4.015610 0.157386 15.987294 -3.526683 -0.800444 -8.638923 0.940898 -0.874210 -7.308996 -4.186443 0.074578 15.610808 3.390817 0.597955 -8.751355 -1.235865 0.943074 
0.067934 42.003174 0.241900 -0.130174 -0.159445 0.130973 0.061099 1.042172 3.382844 2.620667 -3.620032 2.618407 0.000000 0.000000 0.000000 21.047729 -7.104835 -3.799137 2.280255 -3.795108 0.681072 0.000000 0.000000 0.000000 -1.461845 -3.514614 -0.327589 -44.874733 10.115165 20.430044 -33.687428 2.437424 4.256711 6.230492 0.662033 -2.041900 -3.205930 4.048381 0.123501 39.384136 -4.205547 19.071878 28.081331 0.420716 -1.706718 -7.109591 -5.929325 0.357327 -7.515051 4.015080 0.171904 16.031904 -3.617288 -0.794220 -8.642935 0.891771 -0.867602 -7.203512 -4.116251 0.062139 15.506078 3.424793 0.586366 -8.794140 -1.081991 0.946057 
0.093208 41.998810 0.242592 -0.161501 -0.197804 0.180061 0.061584 1.042375 4.065721 3.335395 -4.424556 3.233175 0.000000 0.000000 0.000000 24.310408 -6.860012 -0.839414 2.750056 -4.720249 0.833845 0.000000 0.000000 0.000000 -1.741849 -2.942213 -0.329662 -38.893047 8.934510 21.179213 -35.825405 5.124550 5.165553 6.412641 0.892915 -2.539813 -3.292128 3.424828 0.160409 32.714134 -2.785709 19.745150 29.703934 -2.235425 -2.404263 -7.985330 -7.872904 0.431774 -7.502981 4.014502 0.187627 16.080082 -3.715401 -0.787471 -8.647214 0.838579 -0.860446 -7.089278 -4.040251 0.048669 15.392635 3.461585 0.573815 -8.840443 -0.915362 0.949288 
0.120217 41.994148 0.243332 -0.193731 -0.237266 0.232542 0.061681 1.042416 4.797226 4.001983 -5.221129 3.928517 0.000000 0.000000 0.000000 26.528320 -5.339877 4.877002 3.156393 -5.569373 0.991773 0.000000 0.000000 0.000000 -1.982219 -2.407002 -0.324997 -32.405109 7.125219 21.801317 -37.744946 7.629905 5.995755 6.599970 1.130362 -3.051885 -3.379855 2.787757 0.198099 26.175657 -1.269780 20.407892 31.362595 -4.948854 -3.119291 -8.903613 -9.977131 0.512582 -7.490614 4.013909 0.203730 16.129412 -3.815887 -0.780558 -8.651588 0.784101 -0.853117 -6.972278 -3.962414 0.034873 15.276443 3.499265 0.560960 -8.887862 -0.744704 0.952597 
0.147992 41.989349 0.244093 -0.226546 -0.277445 0.286521 0.061237 1.042231 5.588116 4.594046 -5.997627 4.728096 0.000000 0.000000 0.000000 27.851664 -3.172423 12.480837 3.469830 -6.303114 1.155087 0.000000 0.000000 0.000000 -2.164721 -1.929596 -0.311011 -25.960981 5.085673 22.302025 -39.338825 9.853993 6.707145 6.792224 1.374051 -3.577420 -3.468771 2.158102 0.235467 19.916563 0.278419 21.041687 32.996140 -7.632608 -3.810576 -9.856253 -12.207342 0.598371 -7.478612 4.013337 0.219389 16.177475 -3.913608 -0.773841 -8.655888 0.731117 -0.845990 -6.858504 -3.886712 0.021457 15.163470 3.535909 0.548460 -8.933998 -0.578743 0.955815 
0.175570 41.984589 0.244848 -0.259630 -0.317953 0.340105 0.060100 1.041754 6.449140 5.085197 -6.741921 5.655578 0.000000 0.000000 0.000000 28.530388 -1.190772 20.768761 3.660926 -6.882107 1.324017 0.000000 0.000000 0.000000 -2.271124 -1.530608 -0.285120 -20.240904 3.331480 22.697365 -40.499817 11.697318 7.259547 6.989147 1.623658 -4.115716 -3.558535 1.556799 0.271410 14.091420 1.779700 21.626532 34.543381 -10.199716 -4.436889 -10.835062 -14.528872 0.687762 -7.467637 4.012818 0.233780 16.221855 -4.003429 -0.767682 -8.659941 0.682409 -0.839439 -6.753944 -3.817116 0.009125 15.059688 3.569592 0.536975 -8.976451 -0.426205 0.958771 
0.201984 41.980026 0.245571 -0.292666 -0.358405 0.391399 0.058116 1.040922 7.391053 5.449051 -7.441884 6.734626 0.000000 0.000000 0.000000 28.814451 -0.228041 28.537445 3.700243 -7.266983 1.498792 0.000000 0.000000 0.000000 -2.283194 -1.230654 -0.244741 -15.925124 2.378245 23.003361 -41.120697 13.060380 7.612785 7.190482 1.878858 -4.666074 -3.648806 1.004782 0.304822 8.854795 3.154875 22.142426 35.943134 -12.563205 -4.957001 -11.831855 -16.907055 0.779375 -7.458344 4.012384 0.246079 16.260124 -4.080212 -0.762441 -8.663572 0.640753 -0.833840 -6.664588 -3.757599 -0.001418 14.971062 3.598388 0.527164 -9.012821 -0.295817 0.961298 
0.226268 41.975834 0.246236 -0.325337 -0.398412 0.438509 0.055356 1.039765 8.374215 5.667332 -8.066106 7.920931 0.000000 0.000000 0.000000 28.919815 -0.800316 34.672066 3.583227 -7.437297 1.671884 0.000000 0.000000 0.000000 -2.198640 -1.044691 -0.191366 -13.507524 2.539218 23.230034 -41.164249 13.874652 7.747706 7.395977 2.139328 -5.227798 -3.739243 0.522987 0.334600 4.361239 4.324759 22.569370 37.134220 -14.636108 -5.329687 -12.838444 -19.307226 0.871831 -7.451390 4.012068 0.255461 16.289860 -4.138818 -0.758478 -8.666612 0.608932 -0.829568 -6.596425 -3.712130 -0.009468 14.903561 3.620372 0.519687 -9.040709 -0.196304 0.963225 
0.247456 41.972176 0.246816 -0.357328 -0.437590 0.479540 0.052787 1.038687 9.157407 5.754201 -8.506042 8.898276 0.000000 0.000000 0.000000 28.926483 -2.155542 38.411751 3.404855 -7.448293 1.804740 0.000000 0.000000 0.000000 -2.078942 -0.965042 -0.142799 -12.736592 3.318230 23.363382 -40.873253 14.195476 7.729228 7.605373 2.404743 -5.800187 -3.829506 0.132350 0.359639 0.765317 5.210166 22.887360 38.055443 -16.331457 -5.513718 -13.846642 -21.694723 0.963751 -7.447436 4.011902 0.261103 16.308641 -4.174110 -0.756154 -8.668884 0.589723 -0.826996 -6.555443 -3.684683 -0.014318 14.863152 3.633617 0.515203 -9.057716 -0.136394 0.964382 
0.264583 41.969215 0.247285 -0.388320 -0.475550 0.512598 0.051597 1.038189 9.449018 5.731930 -8.633868 9.282468 0.000000 0.000000 0.000000 28.880468 -3.224630 39.084126 3.284993 -7.374131 1.851050 0.000000 0.000000 0.000000 -2.001521 -0.978376 -0.120919 -13.174459 4.016754 23.383392 -40.560478 14.109162 7.643290 7.818416 2.674779 -6.382541 -3.919254 -0.146194 0.378836 -1.778411 5.731908 23.076395 38.645615 -17.562281 -5.467865 -14.848263 -24.034882 1.053755 -7.447142 4.011922 0.262180 16.314053 -4.180954 -0.755829 -8.670219 0.585908 -0.826501 -6.547630 -3.679227 -0.015265 14.855802 3.636197 0.514370 -9.061445 -0.124813 0.964601 
0.276683 41.967129 0.247616 -0.417999 -0.511907 0.535790 0.052977 1.038767 8.957438 5.622790 -8.321759 8.689317 0.000000 0.000000 0.000000 28.827789 -2.938494 36.016819 3.343501 -7.288974 1.764504 0.000000 0.000000 0.000000 -2.043797 -1.071357 -0.147607 -14.383260 3.936268 23.270056 -40.538704 13.702027 7.575830 8.034847 2.949112 -6.974161 -4.008145 -0.291711 0.391087 -3.115389 5.810799 23.116472 38.843552 -18.241610 -5.150903 -15.835114 -26.293028 1.140463 -7.451166 4.012159 0.257867 16.303669 -4.154210 -0.757865 -8.670445 0.600266 -0.828456 -6.578974 -3.699734 -0.011603 14.887478 3.626187 0.517849 -9.049498 -0.170287 0.963713 
0.282790 41.966072 0.247783 -0.446047 -0.546274 0.547220 0.058116 1.040922 7.391053 5.449051 -7.441884 6.734626 0.000000 0.000000 0.000000 28.814451 -0.228041 28.537445 3.700243 -7.266983 1.498792 0.000000 0.000000 0.000000 -2.283194 -1.230654 -0.244741 -15.925124 2.378245 23.003361 -41.120697 13.060380 7.612785 8.254410 3.227418 -7.574346 -4.095840 -0.283265 0.395287 -3.091055 5.367650 22.987589 38.588066 -18.282473 -4.521600 -16.799011 -28.434502 1.222497 -7.460168 4.012648 0.247342 16.275072 -4.088743 -0.762621 -8.669388 0.635576 -0.833237 -6.655465 -3.750176 -0.002628 14.964147 3.601661 0.526299 -9.019474 -0.281543 0.961546 
0.281938 41.966221 0.247760 -0.472147 -0.578264 0.544995 0.066923 1.044616 4.596473 5.234579 -5.940584 3.220262 0.000000 0.000000 0.000000 28.837921 5.512631 16.500336 4.439908 -7.365534 1.021130 0.000000 0.000000 0.000000 -2.772564 -1.442420 -0.426562 -17.520943 -0.982083 22.584803 -42.483440 12.216673 7.813567 8.476852 3.509372 -8.182400 -4.181997 -0.099921 0.390332 -1.550848 4.323278 22.669744 37.817978 -17.597902 -3.538732 -17.731768 -30.424633 1.298478 -7.474806 4.013421 0.229779 16.225840 -3.979414 -0.770459 -8.666874 0.694618 -0.841218 -6.783092 -3.834525 0.012366 15.091776 3.560693 0.540379 -8.968974 -0.467306 0.957933 
